<svg width="44" height="44" viewBox="0 0 44 44" fill="none" xmlns="http://www.w3.org/2000/svg">
<path fill-rule="evenodd" clip-rule="evenodd" d="M15.9165 17.799L29.6953 31.5778C30.0673 31.9475 30.1157 31.9136 30.0311 32.4138C29.7508 34.1123 30.263 35.9171 31.575 37.2266C33.7301 39.3841 37.2261 39.3841 39.3837 37.2266C41.5387 35.069 41.5387 31.573 39.3837 29.4179C38.0765 28.1108 36.279 27.5962 34.583 27.874C34.0733 27.9561 34.1264 27.9296 33.7494 27.5527L19.9707 13.7762C19.601 13.4042 19.5116 13.409 19.6566 12.9185C20.3451 10.6039 19.775 7.99216 17.946 6.16329C15.9817 4.20137 13.1187 3.68682 10.6858 4.62422C10.6785 4.62661 10.6737 4.62908 10.6664 4.63147C10.4152 4.72812 10.4152 4.94069 10.5746 5.10017L13.6092 8.13229C13.8122 8.33523 13.875 8.56238 13.7977 8.84501L13.3096 10.6304C13.2444 10.8721 13.0728 11.075 12.7877 11.1523L11.0023 11.6404C10.7171 11.7177 10.4852 11.6476 10.2895 11.4519L7.25741 8.41748C7.08583 8.23866 6.87079 8.2967 6.78385 8.52138C5.84406 10.9568 6.35623 13.8246 8.32045 15.7889C10.1518 17.6178 12.7636 18.188 15.0806 17.497C15.5662 17.3544 15.5469 17.4293 15.9165 17.799ZM33.9596 34.8418C34.798 35.6802 36.1582 35.6802 36.9966 34.8418C37.8374 34.0011 37.8374 32.6432 36.9966 31.8025C36.1582 30.9641 34.798 30.9641 33.9596 31.8025C33.1213 32.6432 33.1213 34.0011 33.9596 34.8418Z" fill="url(#paint0_linear)"/>
<path d="M16.8198 15.5665C16.5685 15.3177 16.5685 14.9118 16.8198 14.663C17.0686 14.4141 17.4746 14.4141 17.7235 14.663L32.5895 29.529C32.8384 29.7779 32.8384 30.1814 32.5895 30.4327C32.3382 30.6815 31.9347 30.6815 31.6834 30.4327L16.8198 15.5665Z" fill="url(#paint1_radial)"/>
<path fill-rule="evenodd" clip-rule="evenodd" d="M29.8855 9.37183L32.2485 11.7371L18.8321 25.1534L16.4668 22.7881L29.8855 9.37183Z" fill="url(#paint2_radial)"/>
<path fill-rule="evenodd" clip-rule="evenodd" d="M35.3872 4.47196L37.1509 6.23332C37.3345 6.41691 37.3587 6.67782 37.221 6.89286L34.8436 10.5895C34.701 10.8093 34.5005 10.9856 34.2081 11.0824L32.2462 11.7371L29.8857 9.37181L30.5381 7.41236C30.6275 7.14175 30.799 6.9267 31.0309 6.77694L34.7276 4.40198C34.9547 4.25453 35.2108 4.29322 35.3872 4.47196Z" fill="url(#paint3_radial)"/>
<path fill-rule="evenodd" clip-rule="evenodd" d="M14.9713 21.2902L20.33 26.6514C21.154 27.4753 21.154 28.8234 20.33 29.6473C19.5063 30.4712 18.158 30.4712 17.3342 29.6473L11.9753 24.2861C11.1515 23.4623 11.1515 22.1141 11.9753 21.2902C12.7993 20.4687 14.1474 20.4687 14.9713 21.2902Z" fill="url(#paint4_radial)"/>
<path fill-rule="evenodd" clip-rule="evenodd" d="M17.3344 29.6474L8.62459 38.3573C7.97468 39.0072 6.91156 39.0072 6.26165 38.3573L3.26575 35.3614C2.61584 34.7115 2.61584 33.6459 3.26575 32.996L11.9757 24.2861L17.3344 29.6474Z" fill="url(#paint5_radial)"/>
<path d="M12.0795 28.6373C12.3283 28.3885 12.7342 28.3885 12.983 28.6373C13.2343 28.8886 13.2343 29.2921 12.983 29.541L7.33918 35.1873C7.08791 35.4361 6.68441 35.4361 6.43552 35.1873C6.18425 34.9385 6.18425 34.5326 6.43552 34.2838L12.0795 28.6373Z" fill="url(#paint6_radial)"/>
<defs>
<linearGradient id="paint0_linear" x1="23.6638" y1="4.17017" x2="23.6638" y2="38.8448" gradientUnits="userSpaceOnUse">
<stop stop-color="#5990FD"/>
<stop offset="1" stop-color="#274CFC"/>
</linearGradient>
<radialGradient id="paint1_radial" cx="0" cy="0" r="1" gradientUnits="userSpaceOnUse" gradientTransform="translate(24.7037 14.4763) rotate(90) scale(16.1429 16.1448)">
<stop stop-color="#F0F9FF"/>
<stop offset="1" stop-color="#D1E1FE"/>
</radialGradient>
<radialGradient id="paint2_radial" cx="0" cy="0" r="1" gradientUnits="userSpaceOnUse" gradientTransform="translate(24.3576 9.37183) rotate(90) scale(15.7816)">
<stop stop-color="#F0F9FF"/>
<stop offset="1" stop-color="#9BBFFF"/>
</radialGradient>
<radialGradient id="paint3_radial" cx="0" cy="0" r="1" gradientUnits="userSpaceOnUse" gradientTransform="translate(33.5974 4.31128) rotate(90) scale(7.42586 7.42332)">
<stop stop-color="#F0F9FF"/>
<stop offset="1" stop-color="#9BBFFF"/>
</radialGradient>
<radialGradient id="paint4_radial" cx="0" cy="0" r="1" gradientUnits="userSpaceOnUse" gradientTransform="translate(16.1527 20.6741) rotate(90) scale(9.59116 9.5906)">
<stop stop-color="#D80032"/>
<stop offset="1" stop-color="#FB7370"/>
</radialGradient>
<radialGradient id="paint5_radial" cx="0" cy="0" r="1" gradientUnits="userSpaceOnUse" gradientTransform="translate(10.0564 24.2861) rotate(90) scale(14.5586 14.5561)">
<stop stop-color="#D80032"/>
<stop offset="1" stop-color="#FB7370"/>
</radialGradient>
<radialGradient id="paint6_radial" cx="0" cy="0" r="1" gradientUnits="userSpaceOnUse" gradientTransform="translate(9.70928 28.4507) rotate(90) scale(6.92326 6.92443)">
<stop stop-color="#F0F9FF"/>
<stop offset="1" stop-color="#D1E1FE"/>
</radialGradient>
</defs>
</svg>
