<svg width="28" height="28" viewBox="0 0 28 28" fill="none" xmlns="http://www.w3.org/2000/svg">
<g clip-path="url(#clip0)">
<path d="M0.00503609 11.4762C0.0159736 11.3002 0.143942 11.1505 0.316099 11.1121C0.367833 11.1006 0.839732 10.9999 1.47657 10.9999C1.51299 10.9999 1.55007 11.0002 1.58742 11.0009C2.54817 11.0191 3.35033 11.2803 3.90721 11.7562C3.94588 11.7892 3.9835 11.8239 4.02047 11.8595C4.18398 11.0376 4.45266 10.231 4.82607 9.45716C4.03272 9.02715 3.46774 8.46486 3.18922 7.82452C2.89713 7.15279 2.88198 6.30935 3.14558 5.38529C3.3383 4.70963 3.61223 4.22252 3.62382 4.20202C3.69442 4.07744 3.82704 4 3.96999 4C4.00111 4 4.03234 4.00372 4.06313 4.0111C4.08593 4.01657 4.62838 4.14809 5.25449 4.46807C6.11013 4.90535 6.71689 5.49155 7.00903 6.16322C7.30112 6.83495 7.31627 7.67845 7.05267 8.60245C6.86482 9.26094 6.60063 9.73908 6.57662 9.78195C6.57159 9.79212 6.56732 9.80251 6.56185 9.81252C5.32373 12.0767 5.20314 14.7307 6.23099 17.094C7.32983 19.6207 9.60554 21.4305 12.3184 21.9351C12.782 22.0213 13.0878 22.4669 13.0016 22.9304C13.0013 22.932 13.0008 22.9335 13.0005 22.9351C12.9775 23.1552 12.9205 23.5541 12.7844 24.0138C12.5114 24.9352 12.0464 25.639 11.4398 26.0495C10.943 26.3855 10.2847 26.563 9.53609 26.563C9.37843 26.563 9.2148 26.5552 9.04986 26.5397C8.36277 26.4754 7.85461 26.3058 7.79905 26.2867C7.6322 26.2293 7.52184 26.0662 7.53064 25.8903C7.53365 25.8314 7.56564 25.2956 7.76148 24.6349C8.03442 23.7135 8.49943 23.0096 9.10614 22.5992C9.10718 22.5985 9.10827 22.5979 9.10931 22.5972C8.37305 22.2031 7.6911 21.7184 7.07772 21.1565C6.91667 21.2626 6.72165 21.3805 6.49929 21.4944C5.86295 21.8205 5.24782 21.9859 4.67114 21.9859C4.50385 21.9859 4.34001 21.9714 4.18284 21.9428L4.18234 21.9427C4.15402 21.9376 4.12591 21.9319 4.09807 21.9259C3.38237 21.7698 2.68943 21.2888 2.09415 20.5345C1.65851 19.9825 1.42396 19.4759 1.41417 19.4545C1.34056 19.2942 1.38245 19.1017 1.516 18.9866C1.56062 18.9482 1.9699 18.602 2.58377 18.2874C3.22017 17.9613 3.83524 17.796 4.41198 17.796C4.50287 17.796 4.59256 17.8007 4.68088 17.8092C4.67584 17.7977 4.67038 17.7865 4.66534 17.775C4.36697 17.0889 4.14964 16.3825 4.01123 15.6673C3.89376 15.6745 3.76705 15.6792 3.63241 15.6792C3.59587 15.6792 3.55885 15.6789 3.52112 15.6781C2.56042 15.6599 1.75821 15.3987 1.20138 14.923C0.644443 14.4471 0.261302 13.6954 0.0934658 12.7494C-0.029253 12.0574 0.00361422 11.4997 0.00503609 11.4762Z" fill="url(#paint0_linear)"/>
<path d="M27.995 11.4762C27.984 11.3002 27.8561 11.1505 27.6839 11.1121C27.6322 11.1006 27.1603 10.9999 26.5234 10.9999C26.487 10.9999 26.4499 11.0002 26.4125 11.0009C25.4518 11.0191 24.6496 11.2803 24.0927 11.7562C24.0541 11.7892 24.0165 11.8239 23.9795 11.8595C23.816 11.0376 23.5473 10.231 23.1739 9.45716C23.9672 9.02715 24.5322 8.46486 24.8107 7.82452C25.1028 7.15279 25.118 6.30935 24.8544 5.38529C24.6617 4.70963 24.3877 4.22252 24.3761 4.20202C24.3055 4.07744 24.1729 4 24.03 4C23.9988 4 23.9676 4.00372 23.9368 4.0111C23.914 4.01657 23.3716 4.14809 22.7455 4.46807C21.8898 4.90535 21.2831 5.49155 20.9909 6.16322C20.6988 6.83495 20.6837 7.67845 20.9473 8.60245C21.1351 9.26094 21.3993 9.73908 21.4234 9.78195C21.4284 9.79212 21.4326 9.80251 21.4382 9.81252C22.6763 12.0767 22.7969 14.7307 21.769 17.094C20.6701 19.6207 18.3945 21.4305 15.6816 21.9351C15.2181 22.0213 14.9122 22.4669 14.9984 22.9304C14.9987 22.932 14.9992 22.9335 14.9995 22.9351C15.0225 23.1552 15.0795 23.5541 15.2156 24.0138C15.4886 24.9352 15.9536 25.639 16.5602 26.0495C17.057 26.3855 17.7153 26.563 18.4639 26.563C18.6216 26.563 18.7852 26.5552 18.9501 26.5397C19.6372 26.4754 20.1454 26.3058 20.201 26.2867C20.3678 26.2293 20.4782 26.0662 20.4694 25.8903C20.4664 25.8314 20.4344 25.2956 20.2386 24.6349C19.9656 23.7135 19.5006 23.0096 18.8939 22.5992C18.8929 22.5985 18.8918 22.5979 18.8908 22.5972C19.627 22.2031 20.309 21.7184 20.9223 21.1565C21.0834 21.2626 21.2784 21.3805 21.5008 21.4944C22.1371 21.8205 22.7522 21.9859 23.3289 21.9859C23.4962 21.9859 23.6601 21.9714 23.8172 21.9428L23.8177 21.9427C23.846 21.9376 23.8742 21.9319 23.902 21.9259C24.6177 21.7698 25.3106 21.2888 25.9059 20.5345C26.3415 19.9825 26.5761 19.4759 26.5859 19.4545C26.6595 19.2942 26.6176 19.1017 26.4841 18.9866C26.4394 18.9482 26.0302 18.602 25.4163 18.2874C24.7799 17.9613 24.1648 17.796 23.5881 17.796C23.4972 17.796 23.4075 17.8007 23.3192 17.8092C23.3242 17.7977 23.3297 17.7865 23.3347 17.775C23.6331 17.0889 23.8504 16.3825 23.9888 15.6673C24.1063 15.6745 24.233 15.6792 24.3677 15.6792C24.4042 15.6792 24.4412 15.6789 24.4789 15.6781C25.4396 15.6599 26.2419 15.3987 26.7987 14.923C27.3556 14.4471 27.7388 13.6954 27.9066 12.7494C28.0293 12.0574 27.9964 11.4997 27.995 11.4762Z" fill="url(#paint1_linear)"/>
<path fill-rule="evenodd" clip-rule="evenodd" d="M12.5612 3.57812L11.2487 7.21094H10.7331L9.44399 3.57812C9.27212 3.125 9.02993 2.90625 8.71743 2.92188V2.64062H10.8268V2.92188C10.3112 2.89062 10.1549 3.10938 10.3581 3.57812L11.2721 6.25L12.2331 3.55469C12.3268 3.30469 12.3424 3.14062 12.2799 3.0625C12.2174 2.96875 12.0456 2.92188 11.7643 2.92188V2.64062H13.3581V2.92188C12.9674 2.90625 12.7018 3.125 12.5612 3.57812ZM13.5456 2.64062H15.5143V2.92188C15.1237 2.89062 14.944 3.10938 14.9752 3.57812V6.27344C14.944 6.71094 15.1315 6.91406 15.5377 6.88281V7.11719H13.5221V6.88281C13.9284 6.91406 14.1159 6.71094 14.0846 6.27344V3.57812C14.1159 3.10938 13.9362 2.89062 13.5456 2.92188V2.64062ZM16.4049 3.57812V6.27344C16.4206 6.71094 16.2409 6.91406 15.8659 6.88281V7.11719H17.8581V6.88281C17.4362 6.91406 17.2409 6.70312 17.2721 6.25V5.3125H17.7409C18.944 5.32812 19.5299 4.88281 19.4987 3.97656C19.4987 3.08594 18.9127 2.64062 17.7409 2.64062H15.8893V2.92188C16.2487 2.89062 16.4206 3.10938 16.4049 3.57812ZM17.5534 5.03125H17.2721V2.92188H17.5534C18.2252 2.92188 18.5612 3.27344 18.5612 3.97656C18.5612 4.69531 18.2252 5.04688 17.5534 5.03125ZM18.7995 10.9186C18.8824 10.4732 19.3105 10.1795 19.756 10.2621C20.2015 10.345 20.4954 10.7732 20.4125 11.2187L20.2355 12.1703C20.2348 12.1743 20.2338 12.1781 20.2328 12.182C20.2321 12.1849 20.2314 12.1879 20.2307 12.1908L19.3558 16.8947C19.5961 17.0377 19.7576 17.2993 19.7576 17.5993C19.7576 18.0523 19.3903 18.4196 18.9373 18.4196H9.06264C8.60961 18.4196 8.24233 18.0523 8.24233 17.5993C8.24233 17.2993 8.40376 17.0377 8.64406 16.8947L7.76053 12.1443L7.58356 11.1927C7.50071 10.7473 7.7946 10.3191 8.24003 10.2362C8.68562 10.1535 9.11366 10.4472 9.19651 10.8927L9.31316 11.5198L11.8328 13.3259L13.1797 10.4472V9.72575C13.1797 9.27272 13.547 8.90544 14 8.90544C14.453 8.90544 14.8203 9.27272 14.8203 9.72575V10.4472L16.1672 13.3259L18.6879 11.519L18.7995 10.9186Z" fill="url(#paint2_linear)"/>
</g>
<defs>
<linearGradient id="paint0_linear" x1="3.06964" y1="4.73271" x2="11.6131" y2="24.3385" gradientUnits="userSpaceOnUse">
<stop stop-color="#FEF1C5"/>
<stop offset="1" stop-color="#F3DAA2"/>
</linearGradient>
<linearGradient id="paint1_linear" x1="18.0535" y1="4.73271" x2="26.597" y2="24.3385" gradientUnits="userSpaceOnUse">
<stop stop-color="#FEF1C5"/>
<stop offset="1" stop-color="#F3DAA2"/>
</linearGradient>
<linearGradient id="paint2_linear" x1="10.6017" y1="3.15303" x2="15.1975" y2="18.0495" gradientUnits="userSpaceOnUse">
<stop stop-color="#FEF1C5"/>
<stop offset="1" stop-color="#F3DAA2"/>
</linearGradient>
<clipPath id="clip0">
<rect width="28" height="28" fill="white"/>
</clipPath>
</defs>
</svg>
