<svg width="28" height="28" viewBox="0 0 28 28" fill="none" xmlns="http://www.w3.org/2000/svg">
<path fill-rule="evenodd" clip-rule="evenodd" d="M26.8335 11.7715C26.8335 12.602 26.1602 13.2754 25.3296 13.2754V10.2676C26.1602 10.2676 26.8335 10.9409 26.8335 11.7715ZM20.0659 14.7793H25.3296C25.8799 14.7793 26.3893 14.62 26.8335 14.361V17.7871C26.8335 18.6176 26.1602 19.291 25.3296 19.291H20.0659C18.82 19.291 17.8101 18.2811 17.8101 17.0352C17.8101 15.7893 18.82 14.7793 20.0659 14.7793Z" fill="url(#paint0_linear)"/>
<path d="M20.0658 3.5H2.67065C1.84005 3.5 1.16675 4.1733 1.16675 5.00391C1.16675 5.83441 1.84005 6.50781 2.67065 6.50781H22.3217V5.75586C22.3217 4.50997 21.3117 3.5 20.0658 3.5Z" fill="url(#paint1_linear)"/>
<path d="M20.2882 13.2752H23.8256V10.2674C23.8256 9.02152 22.8156 8.01155 21.5697 8.01155H2.67065C2.12037 8.01155 1.6109 7.85228 1.16675 7.59326V22.2987C1.16675 23.5445 2.17672 24.5545 3.42261 24.5545H21.5697C22.8156 24.5545 23.8256 23.5445 23.8256 22.2987V20.7948H20.0658C17.8632 20.7948 16.0966 18.8905 16.3262 16.6419C16.5259 14.6858 18.3219 13.2752 20.2882 13.2752ZM5.67847 21.5467C5.67847 21.9623 5.34214 22.2987 4.92651 22.2987C4.51088 22.2987 4.17456 21.9623 4.17456 21.5467V20.0428C4.17456 19.6272 4.51088 19.2908 4.92651 19.2908C5.34214 19.2908 5.67847 19.6272 5.67847 20.0428V21.5467ZM5.67847 17.035C5.67847 17.4506 5.34214 17.7869 4.92651 17.7869C4.51088 17.7869 4.17456 17.4506 4.17456 17.035V15.5311C4.17456 15.1154 4.51088 14.7791 4.92651 14.7791C5.34214 14.7791 5.67847 15.1154 5.67847 15.5311V17.035ZM5.67847 12.5233C5.67847 12.9389 5.34214 13.2752 4.92651 13.2752C4.51088 13.2752 4.17456 12.9389 4.17456 12.5233V11.0194C4.17456 10.6037 4.51088 10.2674 4.92651 10.2674C5.34214 10.2674 5.67847 10.6037 5.67847 11.0194V12.5233Z" fill="url(#paint2_linear)"/>
<defs>
<linearGradient id="paint0_linear" x1="20.3639" y1="9.33118" x2="27.0854" y2="15.7667" gradientUnits="userSpaceOnUse">
<stop stop-color="#F1D9BF"/>
<stop offset="0.319003" stop-color="#D9C0A5"/>
<stop offset="1" stop-color="#BD9774"/>
</linearGradient>
<linearGradient id="paint1_linear" x1="7.41707" y1="3.15232" x2="7.94218" y2="8.0687" gradientUnits="userSpaceOnUse">
<stop stop-color="#FCDEBA"/>
<stop offset="0.68881" stop-color="#B38F64"/>
<stop offset="1" stop-color="#9F7B59"/>
</linearGradient>
<linearGradient id="paint2_linear" x1="7.86141" y1="5.63265" x2="19.841" y2="26.9364" gradientUnits="userSpaceOnUse">
<stop stop-color="#FCDEBA"/>
<stop offset="0.68881" stop-color="#B38F64"/>
<stop offset="1" stop-color="#9F7B59"/>
</linearGradient>
</defs>
</svg>
