<svg width="32" height="32" viewBox="0 0 32 32" fill="none" xmlns="http://www.w3.org/2000/svg">
<path fill-rule="evenodd" clip-rule="evenodd" d="M17.4364 7.94838C17.2645 8.26479 17.0201 8.53599 16.7254 8.73968L21.1328 15.137L26.4983 12.9651C26.3622 12.6722 26.2857 12.3457 26.2857 12.0008C26.2857 10.7386 27.3092 9.71512 28.5714 9.71512C29.8337 9.71512 30.8571 10.7386 30.8571 12.0008C30.8571 13.2631 29.8337 14.2866 28.5714 14.2866C28.4955 14.2866 28.4208 14.2826 28.3465 14.2754C28.274 14.2687 28.2026 14.2581 28.1323 14.2441L25.394 27.4294H5.46429L2.726 14.2441C2.58371 14.272 2.43638 14.2866 2.28571 14.2866C1.02344 14.2866 0 13.2631 0 12.0008C0 10.7386 1.02344 9.71512 2.28571 9.71512C3.54799 9.71512 4.57143 10.7386 4.57143 12.0008C4.57143 12.3451 4.49498 12.6722 4.35882 12.9651L9.72545 15.137L14.1306 8.74079C13.5335 8.3284 13.1417 7.63867 13.1417 6.85798C13.1417 5.5957 14.1652 4.57227 15.4275 4.57227C16.6897 4.57227 17.7132 5.5957 17.7132 6.85798C17.7132 7.25307 17.6127 7.62416 17.4364 7.94838ZM19.255 20.0354L16.8823 23.8312C16.2109 24.9054 14.6462 24.9054 13.9749 23.8312L11.6027 20.0354C11.4593 19.8061 11.4074 19.546 11.4364 19.2972C11.4754 18.9646 11.6596 18.6515 11.966 18.4601C12.3131 18.2436 12.731 18.2358 13.0737 18.4026C13.2595 18.493 13.423 18.6353 13.5407 18.8239L15.4286 21.8446L17.317 18.8239C17.6512 18.2882 18.3566 18.1258 18.8917 18.4601C19.4269 18.7949 19.5893 19.4997 19.255 20.0354Z" fill="#5A8BF1"/>
</svg>
