<svg width="28" height="28" viewBox="0 0 28 28" fill="none" xmlns="http://www.w3.org/2000/svg">
<path d="M8.29595 15.7138C7.98079 11.6154 8.33914 8.58372 9.39144 6.44537C9.55976 6.10337 9.74011 5.79751 9.92821 5.52295C9.0432 6.17532 8.09488 7.16273 7.27748 8.65848C6.63658 9.83122 6.09403 12.0807 5.82609 14.6761C5.65693 16.3141 5.6253 18.2277 5.75076 19.2263L5.8283 19.8433H7.67794C7.69105 19.814 7.70425 19.7855 7.71727 19.7552C8.06152 18.9549 8.44134 17.6042 8.29595 15.7138Z" fill="url(#paint0_linear)"/>
<path d="M15.958 2C15.9068 2.00197 15.5426 2.02171 15.0887 2.18707C14.7737 2.36512 14.514 2.59246 14.3128 2.87007C13.9307 3.39717 13.8938 3.926 13.8937 3.93107L13.735 4.38349L13.3162 4.55553C12.1326 5.04174 8.98843 6.33327 9.70146 15.6056C9.84088 17.4186 9.56228 18.833 9.18701 19.869H19.0146C18.9693 19.3883 18.8328 18.804 18.5093 18.1006C18.026 17.0501 15.8735 12.5404 15.6025 11.8295C15.7656 11.8293 15.929 11.82 16.0918 11.8014C16.827 11.7174 17.1747 11.582 17.4286 11.4832C17.7091 11.3738 17.8252 11.3287 18.6671 11.5344L20.8439 12.0856C20.9331 12.1074 21.0211 12.1175 21.1079 12.1175C22.1015 12.1173 22.9131 10.7876 23.1011 10.4539C23.3279 10.1144 23.4086 9.70812 23.3282 9.30677C23.2463 8.89768 23.0078 8.54816 22.6568 8.32275C22.3479 8.12435 18.8849 5.29605 17.3876 4.45577C17.0474 4.26484 16.6877 4.12397 16.314 4.03511V2L15.958 2ZM15.7264 7.6646C15.7094 7.28393 16.0626 6.95974 16.4313 6.95974C16.8264 6.95974 17.119 7.28271 17.1361 7.6646C17.1532 8.04527 16.8 8.36946 16.4313 8.36946C16.0361 8.36946 15.7435 8.04649 15.7264 7.6646Z" fill="url(#paint1_linear)"/>
<path d="M6.6766 21.2788C6.1785 21.2788 5.70291 21.5161 5.42693 21.9308C5.2697 22.167 5.17798 22.4505 5.17798 22.755V23.1831H21.8519V22.755C21.8519 22.4505 21.7601 22.167 21.6029 21.9308C21.3269 21.5161 20.8514 21.2788 20.3533 21.2788H6.6766Z" fill="url(#paint2_linear)"/>
<path d="M4 24.5933H23.0296V26.0003H4V24.5933Z" fill="url(#paint3_linear)"/>
<defs>
<linearGradient id="paint0_linear" x1="6.67753" y1="5.98799" x2="13.9787" y2="14.6156" gradientUnits="userSpaceOnUse">
<stop stop-color="#FEF1C5"/>
<stop offset="1" stop-color="#F3DAA2"/>
</linearGradient>
<linearGradient id="paint1_linear" x1="12.5291" y1="2.58028" x2="17.8506" y2="19.3689" gradientUnits="userSpaceOnUse">
<stop stop-color="#FEF1C5"/>
<stop offset="1" stop-color="#F3DAA2"/>
</linearGradient>
<linearGradient id="paint2_linear" x1="9.11024" y1="21.3406" x2="9.16672" y2="23.3079" gradientUnits="userSpaceOnUse">
<stop stop-color="#FEF1C5"/>
<stop offset="1" stop-color="#F3DAA2"/>
</linearGradient>
<linearGradient id="paint3_linear" x1="8.48782" y1="24.639" x2="8.51485" y2="26.0932" gradientUnits="userSpaceOnUse">
<stop stop-color="#FEF1C5"/>
<stop offset="1" stop-color="#F3DAA2"/>
</linearGradient>
</defs>
</svg>
