<svg width="28" height="28" viewBox="0 0 28 28" fill="none" xmlns="http://www.w3.org/2000/svg">
<path d="M4.35294 6.54118L5.62353 4.84706L4.49412 4L2.05882 7.24706L4.49412 10.4941L5.62353 9.64706L4.35294 7.95294H24.5882V21.6H3.41176V11.4824H2V23.0118H26V6.54118H4.35294Z" fill="url(#paint0_linear)"/>
<path d="M4.82349 18.7764H6.23525V20.1881H4.82349V18.7764Z" fill="url(#paint1_linear)"/>
<path d="M21.7646 9.36426H23.1764V10.776H21.7646V9.36426Z" fill="url(#paint2_linear)"/>
<path d="M21.7646 18.7764H23.1764V20.1881H21.7646V18.7764Z" fill="url(#paint3_linear)"/>
<path d="M14 15.953C14.6497 15.953 15.1764 15.4263 15.1764 14.7766C15.1764 14.1268 14.6497 13.6001 14 13.6001C13.3502 13.6001 12.8235 14.1268 12.8235 14.7766C12.8235 15.4263 13.3502 15.953 14 15.953Z" fill="url(#paint4_linear)"/>
<path d="M22.4706 12.1878C21.3029 12.1878 20.3529 11.2378 20.3529 10.0701V9.36426H7.64702V10.0701C7.64702 11.2378 6.69704 12.1878 5.52937 12.1878H4.82349V17.3643H5.52937C6.69704 17.3643 7.64702 18.3142 7.64702 19.4819V20.1878H20.3529V19.4819C20.3529 18.3142 21.3029 17.3643 22.4706 17.3643H23.1764V12.1878H22.4706ZM14 17.3643C12.5728 17.3643 11.4117 16.2032 11.4117 14.776C11.4117 13.3489 12.5728 12.1878 14 12.1878C15.4271 12.1878 16.5882 13.3489 16.5882 14.776C16.5882 16.2032 15.4271 17.3643 14 17.3643Z" fill="url(#paint5_linear)"/>
<defs>
<linearGradient id="paint0_linear" x1="9.09091" y1="1.80236" x2="22.9031" y2="25.0129" gradientUnits="userSpaceOnUse">
<stop stop-color="#FCDEBA"/>
<stop offset="0.68881" stop-color="#B38F64"/>
<stop offset="1" stop-color="#9F7B59"/>
</linearGradient>
<linearGradient id="paint1_linear" x1="5.2406" y1="18.6132" x2="6.36139" y2="20.1051" gradientUnits="userSpaceOnUse">
<stop stop-color="#FCDEBA"/>
<stop offset="0.68881" stop-color="#B38F64"/>
<stop offset="1" stop-color="#9F7B59"/>
</linearGradient>
<linearGradient id="paint2_linear" x1="22.1818" y1="9.20107" x2="23.3025" y2="10.693" gradientUnits="userSpaceOnUse">
<stop stop-color="#FCDEBA"/>
<stop offset="0.68881" stop-color="#B38F64"/>
<stop offset="1" stop-color="#9F7B59"/>
</linearGradient>
<linearGradient id="paint3_linear" x1="22.1818" y1="18.6132" x2="23.3025" y2="20.1051" gradientUnits="userSpaceOnUse">
<stop stop-color="#FCDEBA"/>
<stop offset="0.68881" stop-color="#B38F64"/>
<stop offset="1" stop-color="#9F7B59"/>
</linearGradient>
<linearGradient id="paint4_linear" x1="13.5187" y1="13.3281" x2="15.3867" y2="15.8147" gradientUnits="userSpaceOnUse">
<stop stop-color="#FCDEBA"/>
<stop offset="0.68881" stop-color="#B38F64"/>
<stop offset="1" stop-color="#9F7B59"/>
</linearGradient>
<linearGradient id="paint5_linear" x1="10.2459" y1="8.11313" x2="16.8725" y2="23.0707" gradientUnits="userSpaceOnUse">
<stop stop-color="#FCDEBA"/>
<stop offset="0.68881" stop-color="#B38F64"/>
<stop offset="1" stop-color="#9F7B59"/>
</linearGradient>
</defs>
</svg>
