<svg width="28" height="28" viewBox="0 0 28 28" fill="none" xmlns="http://www.w3.org/2000/svg">
<g clip-path="url(#clip0)">
<g filter="url(#filter0_d)">
<circle cx="18" cy="10" r="10" fill="url(#paint0_linear)"/>
<path fill-rule="evenodd" clip-rule="evenodd" d="M13.4828 6.46785C14.0003 5.70832 14.4599 5.03368 14.6366 4.30465C14.6366 4.30465 16.3861 5.74017 16.9245 7.9383C17.8665 7.08596 17.9562 3.94577 16.745 3.00372C20.8721 2.86914 23.7432 6.41307 23.9226 10.0019C24.0123 11.886 22.9357 17 18.0908 17C12.1245 17 10.7787 12.3794 11.945 9.23924C12.3548 8.1236 12.9496 7.25064 13.4828 6.46785ZM17.9116 10.585C17.6424 11.2579 16.7901 11.1233 16.7901 11.1233C16.2518 11.1682 15.8032 10.2261 15.8032 10.2261C15.8032 10.2261 15.4443 10.7196 15.3994 11.0785C15.3974 11.0945 15.3947 11.1142 15.3915 11.1371C15.3236 11.6264 15.0492 13.6047 17.149 13.9046C19.3471 14.2187 20.1097 12.2897 20.02 11.3476C19.9303 10.4056 18.4948 9.73267 18.4948 9.73267C18.4948 9.73267 18.2256 9.91211 17.9116 10.585Z" fill="url(#paint1_radial)"/>
</g>
</g>
<defs>
<filter id="filter0_d" x="4" y="-2" width="28" height="28" filterUnits="userSpaceOnUse" color-interpolation-filters="sRGB">
<feFlood flood-opacity="0" result="BackgroundImageFix"/>
<feColorMatrix in="SourceAlpha" type="matrix" values="0 0 0 0 0 0 0 0 0 0 0 0 0 0 0 0 0 0 127 0"/>
<feOffset dy="2"/>
<feGaussianBlur stdDeviation="2"/>
<feColorMatrix type="matrix" values="0 0 0 0 0.318538 0 0 0 0 0.318538 0 0 0 0 0.318538 0 0 0 0.3 0"/>
<feBlend mode="normal" in2="BackgroundImageFix" result="effect1_dropShadow"/>
<feBlend mode="normal" in="SourceGraphic" in2="effect1_dropShadow" result="shape"/>
</filter>
<linearGradient id="paint0_linear" x1="18" y1="0" x2="18" y2="20" gradientUnits="userSpaceOnUse">
<stop stop-color="white" stop-opacity="0.61"/>
<stop offset="1" stop-color="#E6EBED" stop-opacity="0.7"/>
</linearGradient>
<radialGradient id="paint1_radial" cx="0" cy="0" r="1" gradientUnits="userSpaceOnUse" gradientTransform="translate(17.7448 3) rotate(90) scale(14 12.3656)">
<stop stop-color="#D80032"/>
<stop offset="1" stop-color="#FB7370"/>
</radialGradient>
<clipPath id="clip0">
<rect width="28" height="28" fill="white"/>
</clipPath>
</defs>
</svg>
