<svg width="36" height="36" viewBox="0 0 36 36" fill="none" xmlns="http://www.w3.org/2000/svg">
<path fill-rule="evenodd" clip-rule="evenodd" d="M17.2071 27.7071C16.8166 28.0976 16.1834 28.0976 15.7929 27.7071L6.79289 18.7071C6.40237 18.3166 6.40237 17.6834 6.79289 17.2929L15.7929 8.29289C16.1834 7.90237 16.8166 7.90237 17.2071 8.29289C17.5976 8.68342 17.5976 9.31658 17.2071 9.70711L8.91421 18L17.2071 26.2929C17.5976 26.6834 17.5976 27.3166 17.2071 27.7071Z" fill="#B6C3DF"/>
<path fill-rule="evenodd" clip-rule="evenodd" d="M26.7071 27.7071C26.3166 28.0976 25.6834 28.0976 25.2929 27.7071L16.2929 18.7071C15.9024 18.3166 15.9024 17.6834 16.2929 17.2929L25.2929 8.29289C25.6834 7.90237 26.3166 7.90237 26.7071 8.29289C27.0976 8.68342 27.0976 9.31658 26.7071 9.70711L18.4142 18L26.7071 26.2929C27.0976 26.6834 27.0976 27.3166 26.7071 27.7071Z" fill="#B6C3DF"/>
</svg>
